<svg xmlns="http://www.w3.org/2000/svg" xmlns:xlink="http://www.w3.org/1999/xlink" viewBox="0 0 266.45 543.14"><defs><style>.cls-1{fill:none;}.cls-2{fill:#dbcf56;}.cls-3{fill:#eaeaea;}.cls-4{fill:#d8d8d8;}.cls-5{clip-path:url(#clip-path);}.cls-6{fill:#314e55;}</style><clipPath id="clip-path" transform="translate(0 -0.53)"><rect class="cls-1" y="0.11" width="266.37" height="544.84"/></clipPath></defs><title>Asset 8</title><g id="Layer_2" data-name="Layer 2"><g id="Layer_1-2" data-name="Layer 1"><g id="مشروبات"><path class="cls-2" d="M164,41.53h10.25V21h-82v20.5Zm0,0" transform="translate(0 -0.53)"/><path class="cls-3" d="M20.5,497.56v25.62H246V497.56a25.66,25.66,0,0,0-25.64-25.62H46.14A25.66,25.66,0,0,0,20.5,497.56Zm0,0" transform="translate(0 -0.53)"/><path class="cls-3" d="M20.5,354.09a25.66,25.66,0,0,0,25.64,25.62H220.31a25.62,25.62,0,1,0,0-51.24H46.14A25.66,25.66,0,0,0,20.5,354.09Zm0,0" transform="translate(0 -0.53)"/><path class="cls-4" d="M20.5,425.83a25.66,25.66,0,0,0,25.64,25.62H220.31a25.63,25.63,0,1,0,0-51.25H46.14A25.66,25.66,0,0,0,20.5,425.83Zm0,0" transform="translate(0 -0.53)"/><path class="cls-3" d="M246,210.64v-41A66.66,66.66,0,0,0,179.39,103H164a10.25,10.25,0,0,1-10.25-10.25V62h-41V92.77A10.24,10.24,0,0,1,102.48,103H87.06A66.66,66.66,0,0,0,20.5,169.62v41A25.59,25.59,0,0,0,46,236.24H220.44A25.59,25.59,0,0,0,246,210.64Zm0,0" transform="translate(0 -0.53)"/><g class="cls-5"><path class="cls-4" d="M246,282.35a25.66,25.66,0,0,0-25.64-25.62H46.14a25.62,25.62,0,1,0,0,51.24H220.31A25.66,25.66,0,0,0,246,282.35Zm0,0" transform="translate(0 -0.53)"/><path class="cls-6" d="M266.45,210.64v-41a87.19,87.19,0,0,0-87.06-87.11h-5.17V62h10.24a10.24,10.24,0,0,0,10.25-10.25v-41A10.24,10.24,0,0,0,184.46.53H82A10.25,10.25,0,0,0,71.74,10.78v41A10.24,10.24,0,0,0,82,62H92.23v20.5H87.06A87.19,87.19,0,0,0,0,169.62v41a45.89,45.89,0,0,0,17.47,35.87,45.5,45.5,0,0,0,0,71.71,45.51,45.51,0,0,0,0,71.74,45.5,45.5,0,0,0,0,71.73A45.86,45.86,0,0,0,0,497.56v35.87a10.24,10.24,0,0,0,10.25,10.24h246a10.24,10.24,0,0,0,10.25-10.24V497.56A45.89,45.89,0,0,0,249,461.69,45.5,45.5,0,0,0,249,390a45.51,45.51,0,0,0,0-71.74,45.5,45.5,0,0,0,0-71.71,45.89,45.89,0,0,0,17.47-35.87ZM92.23,21h82v20.5h-82ZM246,497.56v25.62H20.5V497.56a25.66,25.66,0,0,1,25.64-25.62H220.31A25.66,25.66,0,0,1,246,497.56Zm0-71.73a25.66,25.66,0,0,1-25.64,25.62H46.14a25.63,25.63,0,1,1,0-51.25H220.31A25.66,25.66,0,0,1,246,425.83Zm0-71.74a25.66,25.66,0,0,1-25.64,25.62H46.14a25.62,25.62,0,1,1,0-51.24H220.31A25.66,25.66,0,0,1,246,354.09ZM46.14,308a25.62,25.62,0,1,1,0-51.24H220.31a25.62,25.62,0,1,1,0,51.24Zm0-71.73H46a25.59,25.59,0,0,1-25.51-25.6v-41A66.65,66.65,0,0,1,87.06,103h15.42a10.25,10.25,0,0,0,10.25-10.25V62h41V92.77A10.24,10.24,0,0,0,164,103h15.42A66.67,66.67,0,0,1,246,169.62v41a25.59,25.59,0,0,1-25.51,25.6Zm0,0" transform="translate(0 -0.53)"/></g></g></g></g></svg>