<svg xmlns="http://www.w3.org/2000/svg" xmlns:xlink="http://www.w3.org/1999/xlink" viewBox="0 0 618.64 556.78"><defs><style>.cls-1{fill:none;}.cls-2{fill:#c7894c;}.cls-3{fill:#e6a565;}.cls-4{fill:#f5b97d;}.cls-5{fill:#b1712c;}.cls-6{fill:#fcd453;}.cls-7{clip-path:url(#clip-path);}.cls-8{fill:#fac623;}.cls-9{fill:#464646;}</style><clipPath id="clip-path"><rect class="cls-1" width="618.64" height="556.77"/></clipPath></defs><title>Asset 11</title><g id="Layer_2" data-name="Layer 2"><g id="Layer_1-2" data-name="Layer 1"><g id="مخبوزات"><path class="cls-2" d="M340.25,309.32V72.17a61.87,61.87,0,0,1,61.86-61.86H525.84a61.87,61.87,0,0,1,61.87,61.86V309.32Z"/><path class="cls-3" d="M453.67,206.21a134,134,0,1,1-134-134,134,134,0,0,1,134,134Z"/><path class="cls-4" d="M232.74,247.08,178.1,114.37a92,92,0,0,0-44-47.3A80.79,80.79,0,0,0,21.91,166.51L61.22,276.59l.64,32.73H237.14Z"/><path class="cls-5" d="M515.78,546.46H102.86a41.25,41.25,0,0,1-39.51-29.39l-53-176.82h598L555.28,517.07a41.23,41.23,0,0,1-39.5,29.39Z"/><path class="cls-6" d="M10.31,340.25V309.32l144.35-92.8,237.14,92.8v30.93Z"/><g class="cls-7"><path class="cls-8" d="M608.33,340.25V299l-82.49-61.87-134,72.18v30.93Z"/><path class="cls-9" d="M614.52,290.76,598,278.39V72.17A72.27,72.27,0,0,0,525.84,0H402.11a72.26,72.26,0,0,0-71.47,62.28q-5.46-.42-11-.42a144.12,144.12,0,0,0-123.42,69.42l-8.58-20.84a102.41,102.41,0,0,0-48.89-52.6A91.11,91.11,0,0,0,12.2,170L48.75,272.35l-44,28.3A10.33,10.33,0,0,0,0,309.32v30.93H0a9.9,9.9,0,0,0,.42,3L53.48,520a51.22,51.22,0,0,0,49.38,36.73H515.78A51.22,51.22,0,0,0,565.16,520l53-176.83a10.59,10.59,0,0,0,.42-3h0V299a10.34,10.34,0,0,0-4.12-8.25ZM598,329.94H402.11V315.47l122.82-66.12L598,304.16Zm-12.83,51.55h-64.5a15.47,15.47,0,1,1,0-30.93h73.78ZM407.27,484.6a15.47,15.47,0,1,1,0-30.93h70.51a36,36,0,0,0,0,30.93Zm-144.35,0a15.47,15.47,0,0,1,0-30.93H374.67a36,36,0,0,0,0,30.93Zm-134,0a15.47,15.47,0,0,1,0-30.93H230.32a36,36,0,0,0,0,30.93Zm-104.72-134H96.29a36,36,0,0,0,0,30.93H33.45Zm512,67a15.47,15.47,0,0,1-15.46,15.47H450.18a36.05,36.05,0,0,0,0-30.94h70.51a15.47,15.47,0,0,1,15.46,15.47ZM336.76,433.05a36.05,36.05,0,0,0,0-30.94h80.82a15.47,15.47,0,1,1,0,30.94Zm-134,0a36.05,36.05,0,0,0,0-30.94H304.16a15.47,15.47,0,0,1,0,30.94Zm-113.41,0a36.05,36.05,0,0,0,0-30.94h80.82a15.47,15.47,0,0,1,0,30.94Zm398.78-51.56H386.65a15.47,15.47,0,1,1,0-30.93H488.09a36,36,0,0,0,0,30.93Zm-134,0H242.3a15.47,15.47,0,1,1,0-30.93H354.05a36,36,0,0,0,0,30.93Zm-144.35,0H128.88a15.47,15.47,0,0,1,0-30.93H209.7a36,36,0,0,0,0,30.93Zm-153,20.62a15.47,15.47,0,0,1,0,30.94H48.92l-9.29-30.94ZM55.1,453.67H96.29a36,36,0,0,0,0,30.93H64.38Zm439.81,15.46a15.48,15.48,0,0,1,15.47-15.46h53.16l-9.28,30.93H510.38a15.49,15.49,0,0,1-15.47-15.47Zm58.37-36.08a36,36,0,0,0,0-30.94H579l-9.29,30.94ZM402.11,20.62H525.84A51.62,51.62,0,0,1,577.4,72.17V262.92l-45.37-34a10.31,10.31,0,0,0-11.07-.82l-69.82,37.59A144.3,144.3,0,0,0,351,65.31a51.64,51.64,0,0,1,51.08-44.69ZM319.63,82.49a123.71,123.71,0,0,1,95.23,202.7L391.12,298l-27.43-10.73-24.33-24.33,37-37,28.8,28.79,14.58-14.57-28.8-28.8,28.8-28.8L405.14,168l-28.8,28.8-37-37L368.16,131l-14.58-14.58-28.79,28.8L296,116.44,281.41,131l28.8,28.79-37,37L244.43,168l-14.57,14.58,28.79,28.8-20.87,20.87-31.32-76.07A123.53,123.53,0,0,1,319.63,82.49Zm-9.42,180.43-2.45,2.44-53.14-20.8L273.23,226Zm-22.4-51.55,37-37,37,37-37,37ZM41.07,189.53,64,162a77.5,77.5,0,0,1,51.28-27.51,70.16,70.16,0,0,1-17.19,55.39L57.51,235.54Zm24.35,68.16L113.5,203.6a90.77,90.77,0,0,0,20.23-82.38,10.31,10.31,0,0,0-10-7.8,98.08,98.08,0,0,0-75.57,35.39L33,167,31.62,163a70.48,70.48,0,0,1,97.9-86.75,81.75,81.75,0,0,1,39,42L214,228.68l-55.6-21.76a10.34,10.34,0,0,0-9.34.93l-82.52,53ZM155.81,228l225.68,88.31v13.59H20.62V315ZM102.86,536.15a30.75,30.75,0,0,1-29.63-22l-2.67-8.89H180.44a15.47,15.47,0,0,1,0,30.93Zm110.17,0a36,36,0,0,0,0-30.93h80.82a15.47,15.47,0,1,1,0,30.93Zm113.42,0a36,36,0,0,0,0-30.93H427.89a15.47,15.47,0,1,1,0,30.93Zm189.33,0H460.49a36,36,0,0,0,0-30.93h87.59l-2.68,8.89a30.73,30.73,0,0,1-29.62,22Z"/></g><path class="cls-9" d="M508.18,58.89l14.57-14.58,20.62,20.62L528.79,79.51Z"/><path class="cls-9" d="M479.75,93.93l20.6-10.3,9.22,18.43L489,112.37Z"/><path class="cls-9" d="M477.24,157.71l20.61-20.62,14.58,14.58-20.61,20.62Z"/><path class="cls-9" d="M526.66,118.08l18.43-9.22,10.31,20.61L537,138.69Z"/><path class="cls-9" d="M425.7,69.19l14.58-14.58,20.61,20.62L446.31,89.81Z"/><path class="cls-9" d="M526.65,190.22,545.08,181l10.3,20.61L537,210.83Z"/><path class="cls-9" d="M485.47,212.08l10.31-20.61,18.44,9.21L503.91,221.3Z"/></g></g></g></svg>