<svg xmlns="http://www.w3.org/2000/svg" viewBox="0 0 335.16 507.27"><defs><style>.cls-1{fill:#eaeaea;}.cls-2{fill:#e4ad40;}.cls-3{fill:#314e55;}</style></defs><title>Asset 7</title><g id="Layer_2" data-name="Layer 2"><g id="Layer_1-2" data-name="Layer 1"><g id="ألبان_و_أجبان" data-name="ألبان و أجبان"><path class="cls-1" d="M317,263.19V182.28C317,172.52,293.11,120,269.15,73h-195c-27.3,45.79-55.85,99.21-56,108.93v81.3Zm0,0" transform="translate(0 -0.5)"/><rect class="cls-1" x="135.88" y="18.12" width="72.47" height="36.23"/><rect class="cls-1" x="18.12" y="416.68" width="298.92" height="72.47"/><path class="cls-2" d="M18.12,399.06H317V281.3H18.12Zm208.34-54.35V299.42h18.12v27.17h27.17V308.48h18.12v72.46H271.75V344.71H244.58v36.88H226.46ZM154,362.83V299.42h18.12v63.41H217.4v18.11H154Zm-27.17-63.41h18.12v82.17H126.82ZM45.29,317.54V299.42h72.47v81.52H99.64v-63.4h-9v27.17H72.47V317.54H63.41v63.4H45.29Zm0,0" transform="translate(0 -0.5)"/><rect class="cls-3" x="126.82" y="298.92" width="18.12" height="82.18"/><path class="cls-3" d="M244.58,344.71h27.17v36.23h18.12V308.48H271.75v18.11H244.58V299.42H226.46v82.17h18.12Zm0,0" transform="translate(0 -0.5)"/><path class="cls-3" d="M217.4,380.94V362.83H172.11V299.42H154v81.52Zm0,0" transform="translate(0 -0.5)"/><path class="cls-3" d="M63.41,317.54h9.06v27.17H90.59V317.54h9v63.4h18.12V299.42H45.29v81.52H63.41Zm0,0" transform="translate(0 -0.5)"/><path class="cls-3" d="M282.75,59.76a9.09,9.09,0,0,0-8.06-4.91H226.46V9.55a9,9,0,0,0-9.06-9H126.81a9,9,0,0,0-9,9.05v45.3H69a9,9,0,0,0-7.76,4.39C46.89,83.15,0,162.68,0,181.89V498.7a9.05,9.05,0,0,0,9.06,9.06h317a9.06,9.06,0,0,0,9.06-9.06V182.28c0-19.52-43.67-105.48-52.41-122.52ZM135.88,18.61h72.46V54.85H135.88ZM74.17,73h195c24,47,47.89,99.56,47.89,109.32v80.91H18.12v-81.3c.2-9.72,28.75-63.14,56.05-108.93ZM317,399.06H18.12V281.3H317ZM18.12,489.65V417.18H317v72.47Zm0,0" transform="translate(0 -0.5)"/></g></g></g></svg>