<svg xmlns="http://www.w3.org/2000/svg" xmlns:xlink="http://www.w3.org/1999/xlink" viewBox="0 0 543.14 543.14"><defs><style>.cls-1{fill:none;}.cls-2{clip-path:url(#clip-path);}.cls-3{fill:#5ecc66;}.cls-4{fill:#e25d56;}.cls-5{fill:#314e55;}</style><clipPath id="clip-path" transform="translate(0 -0.53)"><rect class="cls-1" y="0.11" width="543.57" height="544.84"/></clipPath></defs><title>Asset 2</title><g id="Layer_2" data-name="Layer 2"><g id="Layer_1-2" data-name="Layer 1"><g id="فواكه"><g class="cls-2"><path class="cls-3" d="M483.8,29.41,458.05,55.16A305.06,305.06,0,0,1,54.55,458.67L28.87,484.34c129.64,67.13,289.62,42.87,393.71-61.22S550.93,159.05,483.8,29.41Zm0,0" transform="translate(0 -0.53)"/><path class="cls-4" d="M380.3,380.84A283.82,283.82,0,0,0,441.66,71.57L71,442.21A283.86,283.86,0,0,0,380.3,380.84ZM369,328.21l-30.79,15.4a10.89,10.89,0,1,1-9.74-19.48l30.8-15.4A10.89,10.89,0,0,1,369,328.21ZM391.72,156.8a10.89,10.89,0,1,1,21.77,0v15.4a10.89,10.89,0,0,1-21.77,0Zm-35.3,61.58a10.88,10.88,0,0,1,15.39,0l7.7,7.7a10.89,10.89,0,1,1-15.39,15.4l-7.7-7.7a10.89,10.89,0,0,1,0-15.4ZM307,256.89a10.89,10.89,0,1,1,21.77,0v15.39a10.89,10.89,0,1,1-21.77,0Zm-66.1,92.37a10.88,10.88,0,0,1,15.4,0l15.39,15.4a10.88,10.88,0,1,1-15.39,15.39l-15.4-15.4a10.88,10.88,0,0,1,0-15.39Zm-57.07,15.39a10.89,10.89,0,1,1,21.77,0v15.4a10.89,10.89,0,1,1-21.77,0Zm0,0" transform="translate(0 -0.53)"/><path class="cls-5" d="M495.84,6a10.87,10.87,0,0,0-8-5.37,10.71,10.71,0,0,0-9.14,3.09L3.19,479.24a10.87,10.87,0,0,0,2.29,17.14,357.45,357.45,0,0,0,178,47.29A359.68,359.68,0,0,0,438,438.51C552.39,324.1,576.18,146.24,495.84,6ZM441.66,71.57A283.56,283.56,0,0,1,71,442.21ZM422.58,423.12C318.49,527.21,158.51,551.47,28.88,484.34l25.67-25.67A305.07,305.07,0,0,0,458.05,55.16L483.8,29.41C550.93,159.05,526.67,319,422.58,423.12Zm0,0" transform="translate(0 -0.53)"/></g><path class="cls-5" d="M194.76,390.94a10.88,10.88,0,0,0,10.88-10.89v-15.4a10.89,10.89,0,1,0-21.77,0v15.4a10.88,10.88,0,0,0,10.89,10.89Zm0,0" transform="translate(0 -0.53)"/><path class="cls-5" d="M256.34,380.05a10.88,10.88,0,0,0,15.39-15.39l-15.39-15.4a10.89,10.89,0,0,0-15.4,15.39Zm0,0" transform="translate(0 -0.53)"/><path class="cls-5" d="M317.92,283.16a10.88,10.88,0,0,0,10.89-10.89V256.88a10.89,10.89,0,0,0-21.77,0v15.39a10.88,10.88,0,0,0,10.88,10.89Zm0,0" transform="translate(0 -0.53)"/><path class="cls-5" d="M364.12,241.48a10.89,10.89,0,0,0,15.39-15.4l-7.7-7.7a10.89,10.89,0,1,0-15.39,15.4Zm0,0" transform="translate(0 -0.53)"/><path class="cls-5" d="M359.25,308.73l-30.8,15.4a10.89,10.89,0,1,0,9.74,19.48L369,328.21a10.89,10.89,0,0,0-9.73-19.48Zm0,0" transform="translate(0 -0.53)"/><path class="cls-5" d="M402.61,183.08a10.88,10.88,0,0,0,10.88-10.88V156.8a10.89,10.89,0,1,0-21.77,0v15.4a10.88,10.88,0,0,0,10.89,10.88Zm0,0" transform="translate(0 -0.53)"/></g></g></g></svg>