<svg xmlns="http://www.w3.org/2000/svg" xmlns:xlink="http://www.w3.org/1999/xlink" viewBox="0 0 468.62 585.78"><defs><style>.cls-1{fill:none;}.cls-2{fill:#d8dbdd;}.cls-3{fill:#e5e7e9;}.cls-4{fill:#eda600;}.cls-5{fill:#f6bb00;}.cls-6{clip-path:url(#clip-path);}.cls-7{fill:#c78640;}.cls-8{fill:#464646;}</style><clipPath id="clip-path" transform="translate(0 0)"><rect class="cls-1" width="468.62" height="585.78"/></clipPath></defs><title>Asset 10</title><g id="Layer_2" data-name="Layer 2"><g id="Layer_1-2" data-name="Layer 1"><g id="عسل"><path class="cls-2" d="M302.65,312.42l18.86,28.28a120.27,120.27,0,0,1,4.35,126.36L263.6,576H87.87l-62.26-109A120.21,120.21,0,0,1,30,340.7l18.85-28.28Z" transform="translate(0 0)"/><rect class="cls-3" x="48.81" y="253.84" width="253.84" height="58.58"/><path class="cls-4" d="M185.5,87.87v23.37a58.12,58.12,0,0,1-9.77,32.25A58.15,58.15,0,0,0,166,175.73V306.5a65.77,65.77,0,0,0,29.29,54.73l37,24.64H60.66l37-24.64a65.77,65.77,0,0,0,29.29-54.73V175.73a58.15,58.15,0,0,0-9.76-32.24,58.12,58.12,0,0,1-9.77-32.25V87.87Z" transform="translate(0 0)"/><path class="cls-5" d="M341.7,407.39a120.26,120.26,0,0,1-15.83,59.67L263.6,576H87.87l-62.27-109A120.25,120.25,0,0,1,30,340.71L109.2,368a92.07,92.07,0,0,0,72.22-5.29,92.08,92.08,0,0,1,50.07-10l101,8.57a120,120,0,0,1,9.2,46.11Z" transform="translate(0 0)"/><g class="cls-6"><path class="cls-7" d="M439.33,39.05H224.55l-21.7-13a114.19,114.19,0,0,0-109.8-4.22l-15,7.48V87.87l15,7.47a114.13,114.13,0,0,0,51.06,12,114.13,114.13,0,0,0,58.74-16.27l21.7-13H439.33a19.53,19.53,0,1,0,0-39Z" transform="translate(0 0)"/><path class="cls-8" d="M439.33,29.29H227.25L207.88,17.66a123.93,123.93,0,0,0-119.2-4.57L73.74,20.56a9.75,9.75,0,0,0-5.4,8.73V87.87a9.75,9.75,0,0,0,5.4,8.73l14.94,7.47c2.92,1.47,5.91,2.8,8.95,4v3.15A67.7,67.7,0,0,0,109,148.91a48.2,48.2,0,0,1,8.13,26.82v68.34H48.81a9.78,9.78,0,0,0-9.76,9.77v55.62L21.83,335.29a130,130,0,0,0-4.7,136.61l62.26,109a9.78,9.78,0,0,0,8.48,4.92H263.6a9.78,9.78,0,0,0,8.48-4.92l62.26-109a130,130,0,0,0-4.71-136.61l-17.21-25.83V253.84a9.78,9.78,0,0,0-9.77-9.77H175.73V175.73a48.2,48.2,0,0,1,8.13-26.82,67.7,67.7,0,0,0,11.4-37.67v-5.15a125,125,0,0,0,12.62-6.6l19.37-11.62H439.33a29.29,29.29,0,1,0,0-58.58ZM166,95.3V21.85a104.47,104.47,0,0,1,19.53,6.23v61A104.47,104.47,0,0,1,166,95.3ZM146.44,19.56v78c-.77,0-1.55,0-2.33,0a104.23,104.23,0,0,1-17.19-1.45V21a103.16,103.16,0,0,1,17.19-1.45c.78,0,1.56,0,2.33,0ZM87.87,81.84V35.32l9.54-4.77a103.75,103.75,0,0,1,10-4.34V90.94a103.67,103.67,0,0,1-10-4.33Zm5.6,270.38L45.1,335.58,54,322.18H114.9a55.91,55.91,0,0,1-21.43,30ZM58.58,263.6h58.58v39H58.58ZM317.39,462.22l-59.45,104H93.53l-59.45-104a110.46,110.46,0,0,1,.08-109.75L106,377.18a102.23,102.23,0,0,0,79.88-5.84,82.19,82.19,0,0,1,44.76-8.9l94.92,8.05a110.5,110.5,0,0,1-8.2,91.73Zm-1.5-112.15L232.32,343a101.64,101.64,0,0,0-39,4.27A55.75,55.75,0,0,1,178,322.18H297.43l16,23.94c.86,1.3,1.7,2.62,2.5,3.95Zm-23-86.47v39H175.73v-39ZM167.61,138.07a67.61,67.61,0,0,0-11.4,37.66V306.5a75.36,75.36,0,0,0,17.91,48.86,82.74,82.74,0,0,1-59.18,4.17,75.36,75.36,0,0,0,21.74-53V175.73a67.69,67.69,0,0,0-11.4-37.66,48.25,48.25,0,0,1-8-23.89,123,123,0,0,0,58.41-1.13,48.24,48.24,0,0,1-8.06,25ZM439.33,68.34H224.55a9.76,9.76,0,0,0-5,1.39L205,78.43V38.72l14.51,8.7a9.76,9.76,0,0,0,5,1.39H439.33a9.77,9.77,0,1,1,0,19.53Z" transform="translate(0 0)"/></g></g></g></g></svg>