<svg xmlns="http://www.w3.org/2000/svg" xmlns:xlink="http://www.w3.org/1999/xlink" viewBox="0 0 717.3 537.32"><defs><style>.cls-1{fill:none;}.cls-2{clip-path:url(#clip-path);}.cls-3{fill:#e65f58;}.cls-4{fill:#314e55;}</style><clipPath id="clip-path" transform="translate(0 -0.3)"><rect class="cls-1" y="0.07" width="717.86" height="539.24"/></clipPath></defs><title>Asset 4</title><g id="Layer_2" data-name="Layer 2"><g id="Layer_1-2" data-name="Layer 1"><g id="لحوم"><g class="cls-2"><path class="cls-3" d="M35.74,214.4C262.5,486.12,548.16,396.05,654.82,348.27a327.35,327.35,0,0,1-98.94-19l.54,2.14L422.74,364.84l-6.53-26.09L518,313.3c-3.7-1.82-7.4-3.64-11.15-5.65-16.92-9-32.81-22.47-48-38.54l-141.4,56.56-10-25,132.64-53.05c-14-17.35-27.56-36.6-40.78-56.29L251,258.75l-11.13-24.48,144.35-65.62-3.88-5.9c-9.24-14-18.54-28.15-27.93-41.73L143.61,218.47,132.24,194.1,336.5,98.77C306.31,58.25,275.14,27.2,242.39,27.2c-50.95,0-173,78.87-207,186.88.11.13.28.19.39.32Zm0,0" transform="translate(0 -0.3)"/><path class="cls-3" d="M413.34,426.57c-121.26,0-261.61-40.66-385.08-180-8.26,69.07,28.14,133.2,106.85,187,239.65,163.87,507.39,19.81,551.05-5.81V362.82C640.73,384.58,537,426.57,413.34,426.57Zm0,0" transform="translate(0 -0.3)"/><path class="cls-4" d="M715.48,331.66a13.26,13.26,0,0,0-3.38-3.75,13.13,13.13,0,0,0-4-6.18A13.34,13.34,0,0,0,696.91,319c-.84.14-82.21,15.84-177.4-35-18-9.61-35.2-25.68-51.89-45.26l-.71-1.77-.61.25C451,219,436.14,198,421.54,176.22L409,157.38l-6.19-9.4C352.89,72,305.72.3,242.39.3,175.59.3,44.58,93,9.28,207.13-10.86,272.29-8,368.31,119.93,455.8c89.43,61.13,182.29,81.82,267.08,81.82,176.44,0,317.82-89.64,319.9-91a13.45,13.45,0,0,0,6.14-11.29V348a13.23,13.23,0,0,0,2.43-16.37ZM242.39,27.2c32.75,0,63.92,31.05,94.11,71.57L132.24,194.1l11.37,24.37L352.43,121c9.38,13.58,18.69,27.69,27.93,41.73l3.88,5.9L239.89,234.26,251,258.75l148.29-67.41c13.22,19.7,26.73,38.95,40.78,56.29L307.45,300.69l10,25,141.4-56.55c15.19,16.07,31.08,29.5,48,38.54,3.75,2,7.45,3.83,11.15,5.65L416.21,338.75l6.53,26.09,133.67-33.43-.53-2.14a326.93,326.93,0,0,0,98.94,19C548.16,396.05,262.5,486.12,35.74,214.4c-.11-.13-.28-.19-.4-.32,34-108,156.1-186.88,207.05-186.88ZM135.11,433.58C56.4,379.77,20,315.64,28.26,246.57c123.47,139.34,263.82,180,385.08,180,123.68,0,227.39-42,272.82-63.75v64.95c-43.66,25.62-311.4,169.69-551,5.81Zm0,0" transform="translate(0 -0.3)"/></g></g></g></g></svg>