<svg xmlns="http://www.w3.org/2000/svg" xmlns:xlink="http://www.w3.org/1999/xlink" viewBox="0 0 542.71 544.93"><defs><style>.cls-1{fill:none;}.cls-2{fill:#c6c6c6;}.cls-3{fill:#cc624e;}.cls-4{fill:#bc574a;}.cls-5{fill:#e0e0e0;}.cls-6{fill:#ffaa5c;}.cls-7{fill:#348021;}.cls-8{fill:#2e701b;}.cls-9{fill:#98db7c;}.cls-10{fill:#82d361;}.cls-11{fill:#464646;}.cls-12{clip-path:url(#clip-path);}</style><clipPath id="clip-path" transform="translate(-2.22)"><rect class="cls-1" width="544.93" height="544.93"/></clipPath></defs><title>Asset 9</title><g id="Layer_2" data-name="Layer 2"><g id="Layer_1-2" data-name="Layer 1"><g id="زيت_وبهارات" data-name="زيت وبهارات"><path class="cls-2" d="M430.85,132.27a104.75,104.75,0,0,0-46.2,10.67,28.17,28.17,0,0,0-1.55,9.18v.07a145.46,145.46,0,0,0,5.15,38.41,63.74,63.74,0,1,1,73.32,103.29,199.33,199.33,0,0,1,21.83,35.82,105.77,105.77,0,0,0-52.55-197.44Z" transform="translate(-2.22)"/><path class="cls-3" d="M399.72,48.09H273V28.31a19.8,19.8,0,0,1,19.79-19.8h87.14a19.8,19.8,0,0,1,19.79,19.8Z" transform="translate(-2.22)"/><path class="cls-4" d="M379.93,8.51H354.47a19.79,19.79,0,0,1,19.79,19.8V48.09h25.46V28.31a19.8,19.8,0,0,0-19.79-19.8Z" transform="translate(-2.22)"/><path class="cls-5" d="M258.58,536.42a41.15,41.15,0,0,1-31-14.08c-28.62-32.87-51.74-73.36-51.74-118.42,0-65.7,36.1-113.12,68.19-142.3a148,148,0,0,0,48.78-109.43v-.07a28.43,28.43,0,0,0-7.09-18.79l-18.94-21.54a56.42,56.42,0,0,1-14-37.26V58.4A10.31,10.31,0,0,1,263,48.09H412.87a10.31,10.31,0,0,1,10.3,10.31V74.53a56.43,56.43,0,0,1-14.05,37.26l-18.94,21.54a28.42,28.42,0,0,0-7.08,18.79v.07a148,148,0,0,0,48.77,109.43c32.09,29.18,68.2,76.6,68.2,142.3,0,45.06-23.13,85.55-51.75,118.42a41.13,41.13,0,0,1-31,14.08Z" transform="translate(-2.22)"/><path class="cls-6" d="M431.87,261.62A150.34,150.34,0,0,1,413,240.94H262.88A151.05,151.05,0,0,1,244,261.62c-32.09,29.18-68.19,76.6-68.19,142.3,0,45.06,23.12,85.55,51.74,118.42a41.13,41.13,0,0,0,31,14.08H417.31a41.13,41.13,0,0,0,31-14.08c28.62-32.87,51.75-73.36,51.75-118.42,0-65.7-36.11-113.12-68.2-142.3Z" transform="translate(-2.22)"/><path class="cls-7" d="M195,469.79c0,36.8-22,66.63-49.23,66.63s-49.23-29.83-49.23-66.63,22-66.63,49.23-66.63S195,433,195,469.79Z" transform="translate(-2.22)"/><path class="cls-7" d="M92.77,412.73c24.34,12.16,30.75,48.7,14.31,81.63S57.57,544.12,33.23,532s-30.75-48.71-14.3-81.63,49.5-49.77,73.84-37.61Z" transform="translate(-2.22)"/><path class="cls-8" d="M92.69,412.65a43.87,43.87,0,0,0-8.43-3.21c12.78,15.67,14.73,41,0,70.37-17,33.85-42.83,46.7-65.42,40.63A43.25,43.25,0,0,0,33,531.75c24.3,12.21,54.72.72,73.84-37.43S117,424.87,92.69,412.65Z" transform="translate(-2.22)"/><path class="cls-8" d="M145.76,403.16a43.38,43.38,0,0,0-14.37,2.4c20.18,7,34.86,29.39,34.86,64.23S151.57,527,131.39,534a43.39,43.39,0,0,0,14.37,2.41c27.19,0,49.23-23.95,49.23-66.63s-22-66.63-49.23-66.63Z" transform="translate(-2.22)"/><path class="cls-9" d="M58.34,364.35c-22.42-22.46-17.65-63.64-17.65-63.64s41.12-4.78,63.54,17.68S121.87,382,121.87,382s-41.11,4.77-63.53-17.68Z" transform="translate(-2.22)"/><path class="cls-10" d="M75.92,346.39c-12.86-12.88-16.77-31.93-17.77-45.82a105.64,105.64,0,0,0-17.46.14s-4.77,41.18,17.65,63.64S121.88,382,121.88,382a107.05,107.05,0,0,0,.11-17.82c-13.9-.95-33.11-4.83-46.07-17.82Z" transform="translate(-2.22)"/><path class="cls-11" d="M52.18,518.82c4.47,0,9-1.9,11-6.05,3.38-6.75-1.13-14.91-11-19.86-6.89-3.46-18.24-5.41-22.48,3-3.38,6.75,1.14,14.91,11,19.86a25.92,25.92,0,0,0,11.42,3Z" transform="translate(-2.22)"/><g class="cls-12"><path class="cls-11" d="M145.51,492.91c-11,0-18.71,5.27-18.71,12.82s7.7,12.82,18.71,12.82,18.72-5.28,18.72-12.82-7.7-12.82-18.72-12.82Z" transform="translate(-2.22)"/><path class="cls-11" d="M508.51,404.17A180.53,180.53,0,0,0,494,332.94a114.36,114.36,0,0,0,51-95h0c0-62.84-51-113.95-113.77-113.95a113.77,113.77,0,0,0-24.46,2.64l8.7-9.88a64.5,64.5,0,0,0,16.06-42.62V58a18.35,18.35,0,0,0-18.32-18.34H408V27.83A27.86,27.86,0,0,0,380.14,0h-87.3A27.86,27.86,0,0,0,265,27.83V39.65h-2A18.35,18.35,0,0,0,244.68,58V74.14a64.51,64.51,0,0,0,16.07,42.62l19,21.58a20.53,20.53,0,0,1,5.1,13.61c0,4.42,1.63,25.09,6.05,25.09s9.95-20.74,9.95-25.16a36.51,36.51,0,0,0-9.09-24.11l-19-21.58a48.49,48.49,0,0,1-12.08-32V58A2.33,2.33,0,0,1,263,55.64H413.15A2.33,2.33,0,0,1,415.47,58V74.14a48.45,48.45,0,0,1-12.09,32.05l-19,21.58A36.5,36.5,0,0,0,375.32,152a155.61,155.61,0,0,0,22.88,80.93H278c27.87-59.19,19-64.54,22.84-81,1-4.31-5.64,26.16-9.95,25.16s-6.28-29.5-6.05-25.09c1.7,32.08-24.76,84.18-46.26,103.73C206.8,284.57,169.07,333,167.7,400.4A50.67,50.67,0,0,0,153,396c-.37-12.49,1-41.06,18.62-65.4l3.45-4.47a8,8,0,0,0-12.5-10c-1.33,1.61-2.6,3.25-3.8,4.9l-29.52,38.19c-1.63-14.69-6.5-33.16-19.71-46.39-24.91-24.95-68.4-20.21-70.24-20a8,8,0,0,0-7,7c-.22,1.84-4.94,45.38,20,70.33,15.27,15.29,37.5,19.43,52.85,20.29L94,404.86c-24.5-11.18-51.76-2.17-71.61,23.87-2.67,3.51-9.69,22.79-6.18,25.47s16.23-12.26,18.91-15.78c15.4-20.21,35.95-27.24,53.63-18.36,22.09,11.12,26.36,39.69,10.62,71.11-9.29,18.52-22,31.26-35.91,35.86a35,35,0,0,1-27.33-1.93c-19.61-9.85-32.82-49.2-1-86.68,2.85-3.36-14.76,17.32-18.91,15.78s8.71-29.09,6.18-25.47c-33.87,48.57-20.53,97,6.55,110.67a51.62,51.62,0,0,0,39.55,2.81c11.94-4,22.75-11.87,32-23.23,10.32,16.47,26.43,25.95,45,25.95,16.19,0,30.81-7.24,41.16-20.39A71.93,71.93,0,0,0,199.17,499a280.28,280.28,0,0,0,22.28,29.09,49.15,49.15,0,0,0,37.1,16.85H417.6a49.18,49.18,0,0,0,37.1-16.85c25.91-29.75,42.67-60.13,49.81-90.29M489,434.1c-6.54,27.62-22.13,55.7-46.31,83.47a33.18,33.18,0,0,1-25,11.37h-159a33.13,33.13,0,0,1-25-11.37A243.15,243.15,0,0,1,202.78,474q.18-6-.2-12c-1.22-18.61-6.65-34.47-15.9-46.22-.88-1.12-1.8-2.19-2.76-3.24-.2-2.84-.29-5.65-.29-8.4,0-63.56,35.73-109.4,65.7-136.65a159,159,0,0,0,17.46-18.65H409.38a158.78,158.78,0,0,0,17.42,18.65c30,27.25,65.71,73.09,65.71,136.65M281,27.83A11.84,11.84,0,0,1,292.84,16h87.3A11.84,11.84,0,0,1,392,27.83V39.65H281ZM138.26,373.74A135,135,0,0,0,137,396.13a51.22,51.22,0,0,0-25.33,12ZM63.58,358.88c-14.43-14.46-15.94-38.83-15.74-50.54,11.66-.21,35.92,1.28,50.4,15.78S114.17,363,114,374.66c-11.66.23-35.91-1.28-50.4-15.78ZM186.84,470.17c0,35.15-16.61,58.77-41.33,58.77-15.21,0-27.77-9-34.9-24.9,1-1.85,2.07-3.74,3.06-5.7,9.91-19.78,13.33-39.09,9.9-55.85a54.93,54.93,0,0,0-6.47-17c7.28-9.11,17.21-14.08,28.41-14.08,24.72,0,41.33,23.63,41.33,58.77ZM437.56,255.68a141.74,141.74,0,0,1-39.9-62.46,55.87,55.87,0,1,1,66.09,90.1,252.89,252.89,0,0,0-26.19-27.64ZM487,318.32a209.2,209.2,0,0,0-13.6-22.23,71.87,71.87,0,0,0-79.82-119.42,137.63,137.63,0,0,1-2.26-24.79,20.66,20.66,0,0,1,.31-3.52A96.61,96.61,0,0,1,431.16,140c53.92,0,97.78,43.95,97.78,98a98.33,98.33,0,0,1-42,80.37Z" transform="translate(-2.22)"/></g></g></g></g></svg>