<svg xmlns="http://www.w3.org/2000/svg" viewBox="0 0 590.62 544.4"><defs><style>.cls-1{fill:#e6646e;}.cls-2{fill:#ffd164;}.cls-3{fill:#edebed;}.cls-4{fill:#314e54;}</style></defs><title>Asset 12</title><g id="Layer_2" data-name="Layer 2"><g id="Layer_1-2" data-name="Layer 1"><g id="أخرى"><path class="cls-1" d="M563.48,239.84H27.15a18.49,18.49,0,0,1-18.5-18.49h0a18.5,18.5,0,0,1,18.5-18.5H563.48A18.49,18.49,0,0,1,582,221.35h0A18.49,18.49,0,0,1,563.48,239.84Z"/><path class="cls-2" d="M170.15,232.82h0a18.49,18.49,0,0,1-7.9-24.93L260.4,18.65a18.49,18.49,0,0,1,24.93-7.91h0a18.5,18.5,0,0,1,7.9,24.94L195.08,224.92A18.48,18.48,0,0,1,170.15,232.82Z"/><path class="cls-2" d="M305.3,10.74h0a18.51,18.51,0,0,0-7.91,24.94l98.15,189.24a18.49,18.49,0,0,0,24.93,7.9h0a18.49,18.49,0,0,0,7.91-24.93L330.23,18.65A18.5,18.5,0,0,0,305.3,10.74Z"/><path class="cls-3" d="M62.63,278.53l41.61,221.93a9.25,9.25,0,0,0,9.09,7.55h364a9.25,9.25,0,0,0,9.09-7.55L528,278.53a9.25,9.25,0,0,0-9.09-10.95H71.71A9.24,9.24,0,0,0,62.63,278.53Z"/><path class="cls-4" d="M590.62,221.35a27.17,27.17,0,0,0-27.14-27.15H431L337.91,14.66a27.15,27.15,0,0,0-36.6-11.6h0a27,27,0,0,0-6,4.24,27.13,27.13,0,0,0-42.59,7.36L154.57,203.91a27,27,0,0,0-1.78,20.7,27.28,27.28,0,0,0,3.13,6.58H27.15a9.85,9.85,0,1,1,0-19.69h98.63a8.65,8.65,0,0,0,0-17.3H27.15a27.15,27.15,0,0,0-7.38,53.27L69.88,514.71a36.42,36.42,0,0,0,35.77,29.69H485a36.41,36.41,0,0,0,35.77-29.69l50.11-267.25A27.16,27.16,0,0,0,590.62,221.35ZM537.23,332.91H433.69l8.18-84.42H553.05ZM518.15,434.63H423.82L432,350.21H534ZM304,527.1V451.93h100.8l-7.29,75.17Zm-110.8,0-7.29-75.17H286.66V527.1ZM56.64,350.21h102l8.19,84.41H72.47Zm92.11-101.72,8.19,84.42H53.4L37.57,248.49Zm137.91,0v84.42H174.32l-8.18-84.42Zm137.83,0-8.19,84.42H304V248.49ZM176,350.21H286.66v84.41H184.19Zm128,84.42V350.21H414.62l-8.18,84.42Zm5.32-416.21a9.86,9.86,0,0,1,13.27,4.21l98.14,189.25a9.84,9.84,0,1,1-17.47,9.06L305.07,31.69A9.85,9.85,0,0,1,309.28,18.42ZM169.93,211.87,268.08,22.63a9.72,9.72,0,0,1,5.76-4.85,9.84,9.84,0,0,1,11.71,13.91L187.4,220.94a9.83,9.83,0,0,1-13.26,4.2h0a9.83,9.83,0,0,1-4.21-13.27Zm32.83,17,9-17.4H343.47a8.65,8.65,0,1,0,0-17.3H220.76L295.31,50.46,387.86,228.9c.41.79.85,1.55,1.33,2.29H201.43A24.81,24.81,0,0,0,202.76,228.9ZM86.89,511.52,75.72,451.93h92.76l7.29,75.17H105.65A19.1,19.1,0,0,1,86.89,511.52Zm416.84,0A19.1,19.1,0,0,1,485,527.1H414.85l7.29-75.17h92.77Zm59.75-280.33H434.71a27.16,27.16,0,0,0,4-19.69H563.48a9.85,9.85,0,0,1,0,19.69Z"/></g></g></g></svg>