<svg xmlns="http://www.w3.org/2000/svg" viewBox="0 0 919.49 545.95"><defs><style>.cls-1{fill:#ada9a7;}.cls-2{fill:#d6ae90;}.cls-3{fill:#8c888a;}.cls-4{fill:#ffb27a;}.cls-5{fill:#314e54;}</style></defs><title>Asset 6</title><g id="Layer_2" data-name="Layer 2"><g id="Layer_1-2" data-name="Layer 1"><g id="بحريات"><path class="cls-1" d="M862,317.86l28.74-28.73C876.39,246,777.62,116.72,603.41,116.72c-32.33,0-57.78.74-91.58,7.19C478.05,79.11,417.66,16.15,402.28,16.15c-16.76,0-114.94,100.57-114.94,129.31,0,8.75,12.93,25.15,24.63,38.2-68.34,25.26-121.19,48-139.57,48-41.3,0-64.65-158-158-158,0,94.29,28.73,132,28.73,186.77v14.37c0,54.77-28.73,92.49-28.73,186.77,93.38,0,116.73-158,158-158S371.75,504.63,546,504.63c181.38,0,359.17-120.92,359.17-158C905.12,307.09,862,317.86,862,317.86Z"/><path class="cls-2" d="M546,504.63c81.64,0,162.5-24.51,226.8-54.84C736.78,429.26,704,389.7,704,389.7s-86.2,43.1-287.34,0C348.23,375,240.18,331.4,209.48,323.75,276.39,374.74,405.92,504.63,546,504.63Z"/><path class="cls-3" d="M603.41,113.27c-174.2,0-389.7,114.94-431,114.94-9.45,0-18-8.3-26.61-21.08l0,0c-9.06-13.4-18.24-31.68-28.76-50.59-1.47,16.17-9.18,30.72-17.77,46.78C89.32,221.91,79,241.17,79,264.13S89.32,306.34,99.28,325c8.59,16.06,16.3,30.61,17.77,46.78,10.52-18.91,19.7-37.19,28.76-50.59-2.81-5.78-5.73-11.3-8.52-16.52-8.14-15.21-15.17-28.35-15.17-40.5,0-8.16,3.17-16.76,7.71-26.14,17.63,22.32,47.16,40.11,100,18.95,59.66-23.86,354.51-59.8,445.38-14.37a135,135,0,0,0,12.89,5.56l28.17,7.38c47.57,7.48,97.2-8.57,126.17-40.08C795.1,166.06,714.74,113.27,603.41,113.27Z"/><path class="cls-4" d="M387.91,474.11c-12,18-61.06,57.47-86.2,57.47-1.2,0,13.17-33.52-28.74-71.83-37.49-34.28-85-99.38-86.2-143.67"/><path class="cls-4" d="M660.88,402.28S586.65,397.49,546,431l71.83,28.74L675.25,431"/><path class="cls-5" d="M894.46,304l6.45-6.46a14.37,14.37,0,0,0,3.48-14.7c-8.68-26-40.08-71.3-88.52-109.15-42.67-33.34-114.16-73.08-212.46-73.08-28.55,0-58.07,3-87.7,8a14.22,14.22,0,0,0-1.33-2.19A755.78,755.78,0,0,0,457.9,39C425,4.63,411.33,0,402.28,0c-4.6,0-18.59,0-72,53.25-15.69,15.65-52.65,54.08-57,72.82-3.95,17.14,7.65,39.7,13.63,49.81-10.69,4-21,8-30.64,11.67-37.57,14.37-73,28-83.93,28-.39,0-4.09-.3-11.77-10.61-6.9-9.26-14.28-22.91-22.1-37.36C113.42,121.09,79,57.47,14.37,57.47A14.37,14.37,0,0,0,0,71.84c0,55.35,9.42,91.27,17.73,123,5.9,22.53,11,42,11,63.82V273c0,21.84-5.1,41.29-11,63.82C9.42,368.47,0,404.39,0,459.74a14.37,14.37,0,0,0,14.37,14.37c64.65,0,99.05-63.62,124.17-110.07,7.81-14.45,15.19-28.1,22.09-37.36,7.68-10.31,11.38-10.61,11.73-10.61h.06c0,.13,0,.25,0,.38,1.43,52.89,56.5,122.46,90.87,153.89,20.1,18.37,28.35,37.44,24.53,56.68-.5,2.48-1.65,8.28,2.75,13.65A14.49,14.49,0,0,0,301.71,546c33.43,0,85.88-45.45,98.15-63.87a14.2,14.2,0,0,0,1.72-3.58c45,22.89,93.8,38.71,144.37,38.71,109.46,0,206.26-41.8,254.23-66.71,55-28.6,119.31-73.43,119.31-105.69C919.49,324.8,910.27,310.32,894.46,304ZM301.32,132.62C302.9,127.15,318.48,106,348.18,76c27.41-27.63,47.44-43.32,54.6-46.9,11.93,5,47.75,41.1,81.75,85.4-59.87,12.75-118.93,32.4-170.13,51.15-.21-.38-.42-.76-.66-1.12C306.84,154,300.07,138,301.32,132.62ZM376,466.14c-8.49,12.73-37.69,36.33-58.67,46.36-2-27.44-19-49.07-34.62-63.36-31.84-29.11-66.18-76-77.6-112.41,10.61,8.28,22.23,17.9,32.77,26.63,37.7,31.22,85.22,70.57,139,101.66C376.5,465.38,376.22,465.75,376,466.14Zm170,22.34c-112,0-219-88.62-289.78-147.25-43.94-36.4-65.86-53.89-83.77-53.89-25.06,0-40.1,27.82-59.14,63C91.77,390.11,67.72,434.58,29,443.69c1.61-42.86,9.47-72.83,16.49-99.61,6.15-23.43,11.95-45.56,11.95-71.11V258.61c0-25.55-5.8-47.68-11.95-71.11-7-26.78-14.88-56.75-16.49-99.62,38.69,9.12,62.74,53.59,84.23,93.33,19,35.21,34.08,63,59.14,63,15.46,0,42.93-10.24,94.2-29.86,88.53-33.87,222.32-85.08,336.81-85.08A312.45,312.45,0,0,1,770,176.63c-62.58,15.52-109.12,72.14-109.12,139.44a143.57,143.57,0,0,0,81.78,129.64C693.17,466.48,622.65,488.48,546,488.48Zm238.28-62.09-4.11,2.09c-.36-.12-.71-.22-1.08-.31a114.95,114.95,0,0,1,25.16-227c37.27,30.56,60.38,63.18,69.66,82.77l-22,22A14.38,14.38,0,0,0,865.43,330a43.13,43.13,0,0,1,8.91-.93c13.67,0,16.39,5.71,16.42,15.59C889.57,353.31,857.41,388.86,784.23,426.39Z"/><path class="cls-5" d="M668.82,418.16,617.13,444l-38.58-15.43c36.05-14.56,80.87-12,81.42-12a14.37,14.37,0,0,0,1.84-28.68c-3.27-.21-80.41-4.73-125,32a14.37,14.37,0,0,0,3.8,24.43l71.83,28.73a14.36,14.36,0,0,0,11.77-.49l57.47-28.73a14.37,14.37,0,0,0-12.86-25.7Z"/></g></g></g></svg>