<svg xmlns="http://www.w3.org/2000/svg" viewBox="0 0 510.55 543.14"><defs><style>.cls-1{fill:#5ecc66;}.cls-2{fill:#314e55;}</style></defs><title>Asset 1</title><g id="Layer_2" data-name="Layer 2"><g id="Layer_1-2" data-name="Layer 1"><g id="خضار"><path class="cls-1" d="M388.43,320,286.81,408.91a9.82,9.82,0,0,1-16.21-8.59l10.58-85.8c-2.09.08-4.17.2-6.27.2-3.78,0-7.55-.15-11.29-.41l-35.9,90.81a9.82,9.82,0,0,1-16.78,2.55l-58.58-72.88-13.59,4.29c11.93,18.83,36.07,58.82,51.17,96.49,12.67,31.59,16.63,60.41,18.74,75.9.24,1.76.5,3.61.74,5.18,9.45,2.35,35.43,5.28,58.69,7.09,6-6.2,22.82-26.27,43.56-74.55,21.2-49.32,65.69-101.85,87.93-126.37A94.21,94.21,0,0,1,388.43,320Zm0,0" transform="translate(0 -0.53)"/><path class="cls-1" d="M421.33,157.73a9.82,9.82,0,0,1-9.26-9.16c-4.67-72-64.92-128.4-137.16-128.4A137.11,137.11,0,0,0,137.59,151.52a9.76,9.76,0,0,1-4,7.51,9.88,9.88,0,0,1-8.38,1.55A83.46,83.46,0,1,0,180,273.49a9.81,9.81,0,0,1,14.77-4.16,136.12,136.12,0,0,0,65.68,24.91l31.68-1a7.8,7.8,0,0,1,2.92.33,136.84,136.84,0,0,0,51.71-18.74,9.79,9.79,0,0,1,12.82,2.25,73.5,73.5,0,0,0,32.86,23.54L415,304.77c.75,0,1.48.13,2.24.13a73.64,73.64,0,0,0,4.05-147.17ZM126.65,221.19a9.84,9.84,0,0,1-13.36-3.82c-5.16-9.32-15.42-13.9-22.39-10-3.15,1.74-5.32,5-6.12,9.21a22.92,22.92,0,0,0,2.76,15.09A9.84,9.84,0,0,1,83.71,245,9.73,9.73,0,0,1,79,246.23a9.83,9.83,0,0,1-8.6-5,42.36,42.36,0,0,1-4.87-28.32c1.91-10,7.55-18.08,15.88-22.7C98,181,120,188.9,130.48,207.84a9.83,9.83,0,0,1-3.83,13.35ZM250.52,201.1a9.84,9.84,0,0,1-13.35-3.84,32.22,32.22,0,0,0-17-14.93c-6.57-2.36-13.22-2-18.73,1.08-11.84,6.55-15.07,23.45-7.19,37.66a9.82,9.82,0,0,1-17.18,9.51c-13.12-23.68-6.46-52.55,14.85-64.36,10.53-5.85,22.92-6.67,34.91-2.36a51.79,51.79,0,0,1,27.53,23.89,9.82,9.82,0,0,1-3.83,13.35Zm55.77-115a9.79,9.79,0,0,1-13.82,1.21,58.93,58.93,0,0,0-83,7.26,9.82,9.82,0,1,1-15-12.61,78.54,78.54,0,0,1,110.66-9.68,9.8,9.8,0,0,1,1.2,13.82Zm27.53,169.75a9.82,9.82,0,1,1,0-19.64c27.07,0,49.09-19.82,49.09-44.18s-22-44.18-49.09-44.18a9.82,9.82,0,1,1,0-19.64c37.89,0,68.73,28.63,68.73,63.82s-30.84,63.82-68.73,63.82Zm115.91,13.07A9.82,9.82,0,0,1,436.38,265,23,23,0,0,0,425,254.7c-4-1.53-7.9-1.44-11,.31a9.82,9.82,0,1,1-9.51-17.18,32.61,32.61,0,0,1,27.66-1.42,42.18,42.18,0,0,1,21.43,19.12,9.82,9.82,0,0,1-3.83,13.35Zm0,0" transform="translate(0 -0.53)"/><path class="cls-2" d="M510.55,231.26A93.25,93.25,0,0,0,430.9,139C421.64,60.7,354.67.53,274.91.53a156.72,156.72,0,0,0-156,138.67A103.12,103.12,0,1,0,118,343c8.63,13.31,37.26,58.73,53.76,99.83,11.76,29.35,15.5,56.62,17.5,71.26,1.38,10.08,1.84,13.47,4.81,16.5,2.51,2.58,7.73,8,76.88,13,.24,0,.48,0,.72,0a9.88,9.88,0,0,0,5.91-2c2.38-1.78,24.07-19.38,52.17-84.76,24.67-57.42,85.38-122.24,95.48-132.8a93.36,93.36,0,0,0,85.35-92.88ZM311.68,449.19c-20.75,48.28-37.56,68.35-43.57,74.55-23.26-1.81-49.24-4.74-58.69-7.09-.23-1.57-.49-3.42-.74-5.18-2.11-15.49-6.06-44.31-18.74-75.9-15.1-37.67-39.24-77.66-51.17-96.49l13.59-4.29,58.58,72.88a9.82,9.82,0,0,0,16.78-2.55l35.9-90.81c3.74.26,7.51.41,11.29.41,2.1,0,4.18-.12,6.27-.2l-10.57,85.8a9.81,9.81,0,0,0,16.2,8.59L388.43,320a93.88,93.88,0,0,0,11.18,2.85c-22.25,24.52-66.74,77.06-87.93,126.37ZM167.14,321.85A102.89,102.89,0,0,0,193,291.67a155.57,155.57,0,0,0,50.64,19.9l-27.92,70.64Zm182.72-26.13a92.61,92.61,0,0,0,19.06,15.22l-75.68,66.25,8-64.74a156.58,156.58,0,0,0,48.65-16.73Zm67.42,9.18c-.76,0-1.49-.1-2.24-.13l-22.57-4.16a73.55,73.55,0,0,1-32.86-23.53,9.78,9.78,0,0,0-12.82-2.26,136.67,136.67,0,0,1-51.71,18.74,7.8,7.8,0,0,0-2.92-.33l-31.68,1a136.12,136.12,0,0,1-65.68-24.91A9.81,9.81,0,0,0,180,273.49a83.4,83.4,0,1,1-54.84-112.91,9.88,9.88,0,0,0,8.38-1.55,9.76,9.76,0,0,0,4-7.5A137.11,137.11,0,0,1,274.91,20.17c72.24,0,132.49,56.4,137.16,128.4a9.82,9.82,0,0,0,9.26,9.16,73.64,73.64,0,0,1-4.05,147.17Zm0,0" transform="translate(0 -0.53)"/><path class="cls-2" d="M333.82,128.17a9.82,9.82,0,1,0,0,19.63c27.07,0,49.09,19.82,49.09,44.19s-22,44.18-49.09,44.18a9.82,9.82,0,1,0,0,19.64c37.89,0,68.73-28.64,68.73-63.82s-30.84-63.82-68.73-63.82Zm0,0" transform="translate(0 -0.53)"/><path class="cls-2" d="M226.82,163.86c-12-4.31-24.39-3.49-34.91,2.36-21.31,11.81-28,40.68-14.85,64.36a9.81,9.81,0,1,0,17.17-9.51c-7.87-14.21-4.64-31.11,7.2-37.66,5.51-3.07,12.16-3.44,18.73-1.08a32.22,32.22,0,0,1,17,14.93,9.82,9.82,0,1,0,17.18-9.51,51.79,51.79,0,0,0-27.53-23.89Zm0,0" transform="translate(0 -0.53)"/><path class="cls-2" d="M81.37,190.16c-8.33,4.62-14,12.68-15.88,22.7a42.36,42.36,0,0,0,4.87,28.32,9.83,9.83,0,0,0,8.6,5A9.73,9.73,0,0,0,83.71,245a9.84,9.84,0,0,0,3.83-13.36,22.92,22.92,0,0,1-2.76-15.09c.8-4.21,3-7.47,6.12-9.21,7-3.87,17.23.71,22.39,10a9.83,9.83,0,0,0,17.19-9.53C120,188.9,98,181,81.37,190.16Zm0,0" transform="translate(0 -0.53)"/><path class="cls-2" d="M432.13,236.4a32.64,32.64,0,0,0-27.66,1.43A9.82,9.82,0,1,0,414,255c3.15-1.75,7.07-1.84,11-.31A23,23,0,0,1,436.38,265a9.82,9.82,0,1,0,17.18-9.51,42.24,42.24,0,0,0-21.43-19.13Zm0,0" transform="translate(0 -0.53)"/><path class="cls-2" d="M247.76,54.16a78,78,0,0,0-53.33,27.76,9.82,9.82,0,0,0,15,12.61,58.94,58.94,0,0,1,83-7.27,9.81,9.81,0,0,0,12.62-15,77.87,77.87,0,0,0-57.33-18.07Zm0,0" transform="translate(0 -0.53)"/></g></g></g></svg>